<svg xmlns="http://www.w3.org/2000/svg" width="96" height="96" viewBox="0 0 96 96" fill="none">
  <circle cx="48" cy="48" r="48" fill="#F5F5F5"/>
  <path d="M32 32C32 30.8954 32.8954 30 34 30H62C63.1046 30 64 30.8954 64 32V64C64 65.1046 63.1046 66 62 66H34C32.8954 66 32 65.1046 32 64V32Z" fill="#E0E0E0"/>
  <path d="M38 42C38 40.8954 38.8954 40 40 40H56C57.1046 40 58 40.8954 58 42V58C58 59.1046 57.1046 60 56 60H40C38.8954 60 38 59.1046 38 58V42Z" fill="#3056D3"/>
  <path d="M44 48H52" stroke="white" stroke-width="2" stroke-linecap="round"/>
  <path d="M48 44V52" stroke="white" stroke-width="2" stroke-linecap="round"/>
  <path d="M28 36H32" stroke="#3056D3" stroke-width="2" stroke-linecap="round"/>
  <path d="M28 42H32" stroke="#3056D3" stroke-width="2" stroke-linecap="round"/>
  <path d="M28 48H32" stroke="#3056D3" stroke-width="2" stroke-linecap="round"/>
  <path d="M28 54H32" stroke="#3056D3" stroke-width="2" stroke-linecap="round"/>
  <path d="M28 60H32" stroke="#3056D3" stroke-width="2" stroke-linecap="round"/>
  <path d="M38 30V26" stroke="#3056D3" stroke-width="2" stroke-linecap="round"/>
  <path d="M44 30V26" stroke="#3056D3" stroke-width="2" stroke-linecap="round"/>
  <path d="M50 30V26" stroke="#3056D3" stroke-width="2" stroke-linecap="round"/>
  <path d="M56 30V26" stroke="#3056D3" stroke-width="2" stroke-linecap="round"/>
</svg> 