<svg xmlns="http://www.w3.org/2000/svg" width="96" height="96" viewBox="0 0 96 96" fill="none">
  <circle cx="48" cy="48" r="48" fill="#F5F5F5"/>
  <path d="M34 28H62C63.1046 28 64 28.8954 64 30V66C64 67.1046 63.1046 68 62 68H34C32.8954 68 32 67.1046 32 66V30C32 28.8954 32.8954 28 34 28Z" fill="#E0E0E0"/>
  <path d="M38 36H58" stroke="#3056D3" stroke-width="2" stroke-linecap="round"/>
  <path d="M38 42H58" stroke="#3056D3" stroke-width="2" stroke-linecap="round"/>
  <path d="M38 48H58" stroke="#3056D3" stroke-width="2" stroke-linecap="round"/>
  <path d="M38 54H48" stroke="#3056D3" stroke-width="2" stroke-linecap="round"/>
  <path d="M52 60H58" stroke="#3056D3" stroke-width="2" stroke-linecap="round"/>
  <path d="M38 60H48" stroke="#3056D3" stroke-width="2" stroke-linecap="round"/>
  <path d="M52 54C52 54 52 60 58 60" stroke="#3056D3" stroke-width="2" stroke-linecap="round" stroke-linejoin="round"/>
  <path d="M52 54L58 54" stroke="#3056D3" stroke-width="2" stroke-linecap="round"/>
</svg> 