<svg width="120" height="auto" viewBox="0 0 120 30" fill="none" xmlns="http://www.w3.org/2000/svg">
  <path d="M14.1018 0H9.70653C6.6163 0 3.83545 1.88051 2.70105 4.755C1.75791 7.14488 0.800021 9.5991 0.355245 10.8148C-1.67327 18.9585 5.5672 21.4993 7.39139 21.8251C10.8319 22.5722 13.4751 20.5646 14.4975 19.2015C14.6341 19.0193 14.4588 18.797 14.2364 18.8462C9.09203 19.986 7.8014 15.5713 8.56408 13.8117L14.1018 0Z" fill="#006BFF"/>
  <path d="M11.1402 30L15.5355 30C18.6257 30 21.4066 28.1195 22.541 25.245C23.4841 22.8551 24.442 20.4009 24.8868 19.1852C26.9153 11.0415 19.6748 8.50067 17.8506 8.17492C14.4101 7.42777 11.7669 9.43537 10.7445 10.7985C10.6079 10.9807 10.7832 11.203 11.0056 11.1538C16.15 10.014 17.4406 14.4287 16.6779 16.1883L11.1402 30Z" fill="#57EBB9"/>
  <path d="M52 15V5H56V15H52Z" fill="#181C31"/>
  <path d="M58 15V5H62V15H58Z" fill="#181C31"/>
  <path d="M64 5H74C74 5 74 7 74 10C74 13 74 15 74 15H70V9H68V15H64V5Z" fill="#181C31"/>
</svg> 